<?xml version="1.0" standalone="no"?>
<!DOCTYPE svg PUBLIC "-//W3C//DTD SVG 20010904//EN"
 "http://www.w3.org/TR/2001/REC-SVG-20010904/DTD/svg10.dtd">
<svg version="1.0" xmlns="http://www.w3.org/2000/svg"
 width="512.000000pt" height="512.000000pt" viewBox="0 0 512.000000 512.000000"
 preserveAspectRatio="xMidYMid meet">

<g transform="translate(0.000000,512.000000) scale(0.100000,-0.100000)"
fill="#000000" stroke="none">
<path d="M1236 5065 c17 -162 142 -1480 140 -1482 0 -1 -290 115 -644 257
-353 142 -642 256 -642 253 0 -3 81 -185 181 -404 150 -331 178 -402 169 -418
-5 -11 -24 -111 -40 -223 -75 -504 -129 -792 -193 -1043 -28 -107 -24 -131 30
-187 52 -54 71 -60 205 -67 l117 -6 -235 -428 c-130 -236 -234 -430 -232 -432
2 -1 61 20 133 46 498 187 1357 501 1359 498 2 -2 -20 -200 -50 -439 -29 -239
-54 -444 -54 -455 0 -13 114 94 353 333 l354 354 46 -164 c25 -89 101 -362
168 -606 68 -243 126 -439 129 -435 4 5 98 269 209 587 111 319 206 586 210
593 5 10 110 -70 375 -287 202 -166 370 -300 372 -298 2 3 -21 195 -50 429
-30 233 -53 426 -51 428 3 2 255 -144 561 -323 305 -180 558 -326 560 -324 2
3 -73 204 -166 447 -94 244 -170 446 -170 451 0 5 15 14 34 20 128 42 216 194
186 321 -7 28 -27 70 -45 93 l-32 42 27 24 c16 16 38 60 59 120 139 402 202
576 257 713 36 89 64 173 64 193 0 29 -9 44 -49 84 -57 57 -79 65 -150 52 -38
-7 -51 -6 -48 2 3 6 81 130 175 276 94 146 168 266 164 267 -4 2 -267 -89
-584 -201 -318 -112 -578 -198 -578 -192 0 6 103 342 229 746 126 404 227 737
225 738 -1 2 -290 -250 -641 -560 -716 -632 -693 -612 -697 -607 -2 2 -55 214
-118 471 -62 257 -115 468 -118 468 -3 0 -110 -197 -237 -437 -127 -241 -235
-438 -240 -440 -4 -1 -218 247 -475 550 -257 304 -488 575 -512 602 l-45 50 5
-50z m597 -808 c247 -290 450 -527 452 -527 1 0 97 178 211 395 115 217 211
389 213 382 3 -6 50 -198 105 -425 56 -227 104 -414 107 -415 3 -1 272 233
598 521 326 288 594 522 596 520 1 -2 -91 -304 -206 -673 -114 -368 -207 -670
-206 -671 1 -1 244 83 541 187 296 105 540 189 542 187 1 -2 -52 -88 -119
-192 l-123 -190 -73 -12 c-47 -8 -81 -20 -93 -32 -12 -11 -35 -76 -58 -163
-42 -157 -48 -162 -25 -24 25 150 23 160 -38 222 -63 62 -61 62 -239 34 -68
-11 -150 -22 -182 -26 -49 -6 -65 -12 -88 -37 l-28 -30 -21 25 c-28 37 -65 40
-226 23 -78 -9 -168 -16 -200 -16 -86 0 -118 -23 -139 -99 l-17 -60 -27 37
c-49 67 -143 148 -195 168 -74 28 -239 26 -316 -5 -89 -34 -177 -96 -265 -186
l-81 -83 -24 51 c-34 72 -138 180 -207 214 -44 21 -74 28 -142 31 -154 7 -287
-49 -426 -180 -70 -67 -83 -76 -88 -60 -10 31 -142 155 -192 180 -111 56 -263
63 -502 22 -59 -10 -108 -17 -110 -16 -6 6 -259 571 -257 574 2 2 272 -105
600 -238 329 -132 600 -238 602 -236 4 4 -109 1239 -123 1341 -4 34 -3 38 8
24 7 -8 215 -252 461 -542z m2327 -971 c0 -8 -9 -75 -19 -148 -43 -293 -100
-801 -117 -1040 -4 -53 -10 -101 -13 -107 -6 -10 -308 -67 -316 -59 -9 8 54
587 71 654 12 47 -15 23 -32 -28 -9 -29 -41 -118 -72 -198 -30 -80 -76 -208
-103 -285 l-48 -140 -106 -8 c-59 -5 -108 -7 -110 -5 -1 2 11 147 26 323 15
176 28 331 29 343 0 35 -23 21 -32 -19 -18 -73 -171 -608 -177 -618 -7 -11
-288 -37 -298 -28 -2 3 44 155 102 338 108 337 251 810 276 907 l13 52 43 0
c24 0 109 7 189 16 80 9 148 13 152 10 3 -4 -16 -160 -42 -347 -27 -187 -46
-342 -44 -345 11 -10 28 30 113 256 90 241 161 416 177 436 5 7 41 15 81 19
39 4 104 13 142 20 96 18 115 18 115 1z m-2232 -8 c240 -60 253 -588 25 -986
-88 -152 -215 -277 -351 -343 -69 -34 -96 -42 -162 -46 -72 -5 -84 -3 -134 21
-108 53 -156 145 -164 318 -15 344 181 773 437 956 113 81 235 109 349 80z
m917 1 c63 -17 129 -92 155 -176 69 -219 10 -572 -137 -817 -200 -335 -542
-486 -711 -313 -104 107 -128 302 -68 553 89 367 319 674 560 750 51 16 148
17 201 3z m1935 7 c0 -3 -24 -64 -54 -138 -54 -132 -136 -357 -235 -644 l-53
-152 -36 -6 c-56 -9 -172 -7 -172 3 0 19 210 867 218 881 6 11 54 21 158 36
171 25 174 25 174 20z m-3697 -36 c68 -25 133 -91 143 -145 13 -74 -1 -186
-32 -249 -37 -75 -103 -150 -166 -185 l-49 -28 38 -31 c22 -17 52 -54 69 -84
27 -49 29 -61 29 -153 0 -124 -20 -171 -110 -261 -47 -48 -84 -73 -165 -112
-151 -73 -244 -95 -407 -96 -72 -1 -134 2 -138 6 -4 4 11 83 33 175 56 229 82
371 142 763 28 184 53 344 55 356 4 18 19 23 105 38 227 40 357 42 453 6z
m3260 -1044 c51 -19 76 -42 99 -94 25 -55 17 -106 -24 -162 -34 -49 -91 -77
-169 -85 -44 -5 -62 -2 -99 17 -120 62 -122 243 -4 314 45 28 134 32 197 10z
m-2242 -329 c81 -81 150 -116 246 -124 104 -9 249 36 352 109 l34 24 56 -58
c54 -55 59 -58 106 -58 94 0 328 21 347 31 14 8 25 5 46 -11 26 -21 34 -21
162 -15 130 7 183 20 192 46 2 7 15 1 32 -15 36 -33 61 -33 236 -2 l135 24 37
-33 c49 -45 94 -68 146 -74 l44 -6 124 -325 c68 -178 123 -328 122 -332 -2 -4
-32 10 -68 31 -456 270 -974 570 -978 566 -3 -2 18 -185 46 -407 29 -221 51
-403 49 -404 -1 -1 -150 120 -332 268 l-329 270 -12 -34 c-6 -18 -87 -247
-178 -508 -91 -261 -169 -482 -172 -490 -3 -8 -73 226 -156 520 -82 294 -152
537 -154 539 -3 3 -143 -136 -312 -308 -168 -173 -307 -310 -309 -305 -1 5 19
182 45 394 26 212 45 386 41 388 -3 1 -318 -112 -699 -253 -381 -140 -694
-254 -695 -253 -1 2 85 160 191 352 l192 349 81 24 c89 25 234 95 295 141 l40
30 69 -74 c50 -53 87 -83 135 -106 62 -31 74 -33 162 -32 155 1 283 61 432
203 l83 79 24 -46 c13 -26 54 -77 92 -115z"/>
<path d="M1664 2871 c-115 -67 -216 -258 -244 -462 -10 -70 -9 -89 5 -124 28
-75 71 -94 155 -69 92 27 177 133 233 289 51 144 60 310 19 364 -29 40 -101
41 -168 2z m90 -183 c-20 -136 -74 -264 -140 -333 -35 -35 -39 -37 -42 -18 -6
38 28 157 68 238 34 71 96 155 114 155 3 0 3 -19 0 -42z"/>
<path d="M2595 2881 c-62 -28 -141 -119 -186 -215 -70 -150 -99 -338 -63 -407
43 -85 171 -66 264 38 49 55 112 180 135 268 19 71 30 208 21 257 -14 76 -83
100 -171 59z m60 -259 c-23 -104 -73 -209 -125 -262 -54 -56 -60 -43 -32 68
26 103 76 206 126 260 50 54 55 44 31 -66z"/>
<path d="M765 2910 c-10 -55 -15 -103 -12 -107 9 -9 111 23 158 49 76 42 75
103 -4 138 -23 11 -60 20 -83 20 l-41 0 -18 -100z"/>
<path d="M696 2543 c-10 -35 -47 -255 -44 -262 2 -5 31 -2 66 5 124 26 199 92
189 167 -3 21 -11 45 -19 54 -38 46 -181 73 -192 36z"/>
<path d="M2055 4925 c-47 -15 -69 -27 -67 -36 6 -28 216 -614 222 -622 4 -5 6
2 4 15 -2 13 -17 151 -34 308 -34 324 -39 360 -48 359 -4 -1 -38 -11 -77 -24z"/>
<path d="M4469 4268 c-97 -145 -184 -276 -195 -293 l-19 -29 21 14 c67 48 514
404 514 409 -1 3 -34 41 -73 84 l-73 78 -175 -263z"/>
<path d="M905 4350 c-49 -38 -91 -73 -92 -77 -2 -5 76 -87 173 -183 97 -96
174 -167 171 -158 -4 10 -41 124 -82 253 -42 129 -77 235 -78 235 -1 0 -42
-31 -92 -70z"/>
<path d="M937 871 c-164 -87 -300 -160 -302 -163 -7 -7 161 -201 171 -197 5 2
60 65 123 139 63 74 162 190 219 258 57 67 100 122 95 122 -4 -1 -142 -72
-306 -159z"/>
<path d="M3902 1025 c7 -14 341 -609 344 -613 3 -5 188 148 192 158 2 5 -111
104 -250 221 -312 262 -292 246 -286 234z"/>
<path d="M3061 775 c0 -77 16 -265 22 -272 8 -8 117 37 117 48 0 10 -112 233
-129 259 -8 11 -11 2 -10 -35z"/>
</g>
</svg>
