<?xml version="1.0" encoding="UTF-8"?>
<svg id="TEXT" xmlns="http://www.w3.org/2000/svg" xmlns:xlink="http://www.w3.org/1999/xlink" viewBox="0 0 1200 600">
  <defs>
    <linearGradient id="linear-gradient" x1="651.98" y1="90.45" x2="592.79" y2="459.83" gradientUnits="userSpaceOnUse">
      <stop offset="0" stop-color="#ffa600"/>
      <stop offset="0" stop-color="#4c69f6"/>
    </linearGradient>
  </defs>
  <g>
    <path d="M1076.49,231.94c-45.26,23.64-65.91,17.39-109.05-6.3-38.57-21.18-61.57-62.61-59.34-106.61-8.29,14.55-17.93,28.06-28.69,40.42-21.77,19.16-81.79,28.29-141.82,5.35-34.69-13.25-50.45-23.5-62.77-47.99-6.26,22.19-25.91,41.06-63.73,62.8-59.98,31.05-96.71-14.72-109.5-28.08-10.51-12.64-16.52-22.18-18.05-24.69-11.02,11.2-46.81,44.72-105.43,53.94-62.14,9.77-109.28-14.15-122.7-21.56,3.86,5.77,35.99,55.58,14.4,114.43-24.2,65.96-93.48,82.21-97.93,83.17,44.39,5,80.76,36.54,90.44,78.15,7.14,30.68-1.25,62.54-21.5,86.4,22.25-17.45,60.3-40.05,111.94-43.42,59.19-3.86,102.75,19.74,118.1,29.03,13.32-9.86,53.78-37.17,112.91-38.52,56.19-1.28,96.34,21.64,110.61,30.7,11.28-10.51,34.48-29.02,68.93-36.28,70.45-14.85,125.72,30.38,132.69,36.28,2.24-13.53,8.85-39.7,31.11-60.84,34.06-32.36,90.53-39.44,142.87-17.86-7.93-6.7-42.71-37.56-45.51-86.52-2.85-49.94,9.96-59.85,52.01-101.99Z"/>
    <path d="M213.26,494.35c19.47-22.94,27.13-53.67,20.49-82.22-9.25-39.77-43.94-69.7-86.32-74.48l-28.96-3.26,28.48-6.17c2.89-.62,70.94-16.04,94.45-80.14,20.17-54.97-8.03-101.37-13.89-110.12l-10.98-16.39,17.27,9.54c15.74,8.69,48.47,23.28,90.87,23.28,9.59,0,19.27-.76,28.77-2.25,52.54-8.26,86.93-36.48,102.76-52.57l4.3-4.37,3.19,5.24c1.55,2.54,7.39,11.77,17.54,24,.77.81,1.62,1.73,2.56,2.73,10.36,11.15,31.92,34.34,63.53,34.34,12.05,0,24.68-3.37,37.54-10.01,37.24-21.42,55.61-39.34,61.42-59.9l3.35-11.85,5.53,11c11.07,22.02,24.01,31.84,60.2,45.67,22.69,8.67,47.13,13.25,70.7,13.25,28.27,0,53.52-6.71,66.02-17.52,10.58-12.18,19.98-25.43,27.93-39.4l9.96-17.49-1.02,20.1c-2.13,41.93,20.19,82.04,56.86,102.18,24.34,13.37,40.76,20.61,57.79,20.61,13.31,0,27.72-4.43,46.74-14.36l27.58-14.4-21.97,22.02c-2.18,2.19-4.29,4.29-6.31,6.31-36.96,36.9-46.89,46.82-44.31,92.03,2.5,43.72,31.48,72.71,43.82,83.14l23.35,19.73-28.26-11.65c-19.06-7.86-39.46-12.01-58.99-12.01-31.17,0-59.14,10.27-78.76,28.92-19.66,18.68-26.99,41.94-29.68,58.16l-1.38,8.31-6.43-5.44c-7.53-6.37-47.77-38.13-101.05-38.13-9.25,0-18.52.97-27.57,2.88-30.99,6.53-53.35,22.69-66.66,35.1l-2.71,2.52-3.12-1.98c-17.64-11.21-54.54-30.01-103.53-30.01-1.45,0-2.93.02-4.4.05-53.33,1.21-91.92,24.06-110.17,37.58l-2.58,1.91-2.75-1.66c-17.75-10.74-54.7-28.76-102.66-28.76-4.2,0-8.45.14-12.65.41-49.79,3.25-86.92,24.85-109.3,42.41l-37.18,29.16,30.58-36.02Z" fill="#f6db35"/>
    <path d="M650.9,92.9c12.31,24.49,28.08,34.73,62.77,47.99,25.06,9.58,50.13,13.56,72.41,13.56,31.08,0,56.74-7.76,69.42-18.91,10.77-12.36,20.41-25.87,28.69-40.42-2.24,44.01,20.76,85.43,59.34,106.61,24.38,13.39,41.57,21.2,60.09,21.2,14.25,0,29.28-4.63,48.96-14.91-42.05,42.14-54.87,52.05-52.01,101.99,2.79,48.96,37.58,79.82,45.51,86.52-20.16-8.31-40.94-12.37-60.81-12.37-31.71,0-61.12,10.34-82.06,30.24-22.26,21.15-28.86,47.31-31.11,60.84-6-5.08-47.74-39.26-104.14-39.26-9.16,0-18.71.9-28.56,2.98-34.46,7.27-57.66,25.77-68.93,36.28-13.88-8.82-52.27-30.75-106.09-30.75-1.49,0-3,.02-4.51.05-59.13,1.34-99.59,28.66-112.91,38.52-14.21-8.59-52.57-29.45-105.14-29.45-4.23,0-8.55.14-12.96.42-51.64,3.37-89.69,25.97-111.94,43.42,20.25-23.86,28.64-55.72,21.5-86.4-9.68-41.61-46.06-73.14-90.44-78.15,4.46-.97,73.74-17.21,97.93-83.17,21.59-58.85-10.54-108.66-14.4-114.43,11.19,6.18,45.88,23.87,93.18,23.87,9.37,0,19.24-.69,29.51-2.31,58.62-9.22,94.41-42.74,105.43-53.94,1.53,2.51,7.54,12.05,18.05,24.69,9.66,10.09,32.98,38.67,69.66,38.67,11.88,0,25.16-3,39.84-10.6,37.82-21.74,57.46-40.61,63.73-62.8M1052.57,208.02h0M895.79,55.39l-19.92,34.98c-7.74,13.59-16.87,26.49-27.15,38.36-11.61,9.82-36.08,16.14-62.64,16.14-22.99,0-46.85-4.47-68.99-12.93-34.83-13.31-47.22-22.62-57.63-43.35l-11.07-22.01-6.69,23.71c-5.43,19.23-23.11,36.28-59.1,56.99-12.14,6.26-24,9.43-35.25,9.43-29.53,0-49.37-21.34-60.03-32.81-.91-.98-1.74-1.87-2.49-2.66-9.88-11.92-15.53-20.84-17.03-23.31l-6.39-10.47-8.6,8.74c-15.41,15.67-48.92,43.15-100.1,51.2-9.26,1.46-18.69,2.19-28.03,2.19-41.33,0-73.22-14.21-88.55-22.68l-34.54-19.08,21.96,32.78c5.63,8.4,32.74,53.01,13.37,105.81-22.62,61.66-88.19,76.51-90.97,77.11l-56.95,12.33,57.91,6.53c40.37,4.55,73.4,33,82.2,70.81,6.3,27.08-.98,56.25-19.48,78.04l-61.16,72.05,74.36-58.33c21.85-17.14,58.09-38.23,106.66-41.4,4.09-.27,8.25-.4,12.34-.4,46.8,0,82.85,17.58,100.18,28.07l5.49,3.32,5.16-3.82c17.8-13.18,55.43-35.46,107.43-36.64,1.43-.03,2.87-.05,4.29-.05,47.78,0,83.76,18.33,100.96,29.26l6.25,3.97,5.41-5.05c12.86-11.99,34.47-27.61,64.38-33.92,8.73-1.84,17.67-2.77,26.58-2.77,51.6,0,90.65,30.82,97.96,37l12.86,10.88,2.76-16.62c2.57-15.5,9.56-37.71,28.26-55.47,18.73-17.8,45.53-27.6,75.47-27.6,18.91,0,38.67,4.03,57.16,11.65l56.51,23.3-46.69-39.46c-11.87-10.03-39.74-37.89-42.13-79.76-2.46-43.07,6.25-51.76,42.91-88.37,2.03-2.03,4.14-4.13,6.32-6.32l43.95-44.04-55.15,28.8c-18.3,9.56-32.03,13.82-44.53,13.82-16.08,0-31.3-6.74-55.48-20.02-35.08-19.26-56.43-57.63-54.39-97.74l2.05-40.21h0ZM1052.57,198.45h0,0Z"/>
  </g>
  <g>
    <g>
      <path d="M212.6,396.62c-6.46.35-12.48.15-18.07-.6,8.38-31.09,15.06-62.31,20.03-93.66,4.98-31.35,9.73-62.9,14.27-94.67,9.07-2.41,18.5-4.63,28.28-6.64,9.77-2.01,19.9-3.3,30.37-3.87,5.76-.31,11.87.37,18.33,2.03,6.46,1.67,11.91,4.96,16.37,9.89,4.45,4.93,6.68,12.12,6.68,21.57,0,8.76-1.83,16.91-5.5,24.46-3.67,7.55-8.29,14.1-13.88,19.66-5.59,5.55-11.35,9.63-17.28,12.22,2.44,1.1,5.32,3.13,8.64,6.1,3.31,2.97,6.19,7.02,8.64,12.14,2.44,5.12,3.67,11.45,3.67,18.98,0,10.51-3.1,20.17-9.3,29-6.2,8.83-14.45,16.32-24.74,22.48-9.95,6.14-20.69,11.01-32.21,14.6-11.52,3.6-22.96,5.7-34.3,6.31ZM245.85,341.77c3.49-.54,7.33-1.35,11.52-2.46,4.19-1.1,8.2-2.67,12.04-4.72,3.84-2.05,7.02-4.67,9.56-7.87,2.53-3.2,3.8-6.99,3.8-11.37s-1.4-7.45-4.19-9.75c-2.79-2.3-6.15-3.91-10.08-4.84-3.93-.93-7.64-1.3-11.13-1.11l-2.09.11c-.88.05-1.57.18-2.09.38-1.05,6.54-2.27,13.43-3.67,20.68-1.4,7.26-2.62,14.24-3.67,20.95ZM259.21,267.25c5.41-1.34,10.56-3.02,15.45-5.03,4.88-2.01,8.86-4.24,11.91-6.68,3.05-2.44,4.58-4.97,4.58-7.6,0-3.32-1.31-5.88-3.93-7.67-2.62-1.78-5.76-3.01-9.43-3.7-3.67-.68-7.07-.93-10.21-.76l-2.62.14c-1.22,7.07-2.36,13.22-3.4,18.44-1.05,5.22-1.83,9.51-2.36,12.87Z" fill="#4c69f6"/>
      <path d="M374.68,386.31c.35-2.99.7-5.9,1.05-8.72.35-2.82.7-5.64,1.05-8.46l1.57-14.79c.17-2.46.35-4.75.52-6.86.17-2.11.35-4.05.52-5.81l-22.78,1.23-10.47,38.38c-3.84.73-8.38,1.55-13.62,2.44-5.24.9-10.13,1.73-14.66,2.5-2.79.5-5.54,1-8.25,1.49-2.71.5-5.45,1-8.25,1.49l20.69-69.93c2.44-8.36,5.24-17.88,8.38-28.55,3.14-10.67,6.33-21.62,9.56-32.82,3.23-11.21,6.28-21.74,9.16-31.62,2.88-9.87,5.19-18.18,6.94-24.93,11.87-1.51,23.96-3.21,36.27-5.1,12.31-1.89,24.31-4.2,36-6.93-.88,9.86-1.7,20.97-2.49,33.36-.79,12.39-1.48,25.16-2.09,38.33-.61,13.17-1.27,26.16-1.96,38.98-.35,12.1-.79,24.6-1.31,37.5-.52,12.9-1.05,26.1-1.57,39.61-2.62.49-5.24.98-7.85,1.47-2.62.49-5.24.98-7.85,1.47-4.37.94-9.17,1.98-14.4,3.14-5.24,1.16-9.95,2.2-14.14,3.12ZM362.89,316.3c1.05-.06,3.01-.25,5.89-.58,2.88-.33,5.63-.65,8.25-.97,2.62-.31,4.19-.49,4.71-.52,0-2.27.35-6.93,1.05-13.98.7-7.04,1.4-14.43,2.09-22.18.35-4.57.74-9.27,1.18-14.12.43-4.84.92-9.81,1.44-14.92l1.57-22.94-3.93.47-6.02,22.91-16.23,66.8Z" fill="#4c69f6"/>
      <path d="M422.6,381.89v-38.35l74.36-105.65c-3.84.21-8.73.78-14.66,1.71-5.94.94-11.57,1.94-16.89,3.01-5.33,1.07-9.21,1.94-11.65,2.6l-6.28.86,4.98-41.5,107.09-13.38-6.81,36.61-71.48,105.76c2.44-.13,6.5-.48,12.18-1.05,5.67-.57,12.13-1.26,19.38-2.09,7.24-.82,14.27-1.69,21.08-2.58v39.92c-2.09.11-7.46.58-16.1,1.39-8.64.82-20.29,2.06-34.96,3.72-13.27,1.59-25.23,3.16-35.87,4.69-10.65,1.54-18.77,2.98-24.35,4.33Z" fill="#4c69f6"/>
      <path d="M534.4,377.98c2.44-10.29,4.88-21.93,7.33-34.93,2.44-13,4.89-26.48,7.33-40.45,2.44-13.96,4.71-27.39,6.81-40.29,1.92-11.31,3.8-22.79,5.63-34.45s3.62-23.39,5.37-35.22l40.85-8.77-11.78,69.71c-2.62,16.42-4.93,31.17-6.94,44.24-2.01,13.07-3.93,25.43-5.76,37.08s-3.71,23.58-5.63,35.76c-3.32.18-7.33.62-12.04,1.3-4.71.69-9.43,1.47-14.14,2.34-4.71.87-8.69,1.65-11.91,2.35-3.23.7-4.93,1.14-5.11,1.33Z" fill="#4c69f6"/>
      <path d="M587.29,376.71c5.24-25.5,10.21-50.19,14.93-74.08,3.84-22.44,7.59-44.01,11.26-64.69,3.67-20.69,6.29-39.65,7.86-56.89,1.22.11,2.31.14,3.27.09.96-.05,1.79-.1,2.49-.13l5.5-.3c4.54-.24,9.6-.65,15.19-1.21,5.58-.56,10.74-1.06,15.45-1.49,1.22,6.07,2.4,12.04,3.54,17.93,1.13,5.89,2.14,11.62,3.01,17.17.87,4.86,1.83,9.84,2.88,14.95,1.05,5.11,2.09,10.26,3.14,15.46.87,5.21,1.79,10.02,2.75,14.43.96,4.41,1.79,8.44,2.49,12.08,2.09-10.44,4.06-20.71,5.89-30.79,1.83-10.08,3.62-19.19,5.37-27.34l7.59-35.6,31.94-5.66c-2.97,13.47-5.76,26.66-8.38,39.59-2.62,12.92-5.07,25.4-7.33,37.43-4.37,21.6-8.21,41.94-11.52,61.03-3.32,19.09-5.85,35.69-7.59,49.79,1.92-.1,1.61.13-.92.71-2.53.58-6.24,1.39-11.13,2.44-4.89,1.05-10.13,2.34-15.71,3.87-5.59,1.53-10.56,3.29-14.92,5.27-.52-6.97-1.05-13.77-1.57-20.4-.52-6.62-1.14-13.07-1.83-19.34-1.05-11.15-2.27-22.2-3.67-33.16-1.4-10.96-2.79-19.63-4.19-26.04-1.22,7.77-2.71,16.65-4.45,26.64-1.75,9.99-3.67,20.03-5.76,30.12l-7.33,37.17-38.23,10.99Z" fill="#4c69f6"/>
      <path d="M762.73,372.25c-6.46.35-12.61-.72-18.46-3.21-5.85-2.48-10.87-6.51-15.06-12.06-4.37-5.37-7.77-12.28-10.21-20.72-2.45-8.45-3.67-18.45-3.67-30.01,0-22.59,3.23-42.46,9.69-59.62,6.46-17.16,14.66-31.61,24.61-43.35,9.78-11.73,20.29-20.62,31.55-26.65,11.26-6.03,21.77-9.31,31.55-9.84,9.43-.51,17.11,1.14,23.04,4.93,5.93,3.8,10.3,9.03,13.09,15.71,2.79,6.68,4.19,14.22,4.19,22.62l-35.87,8.76c-1.57-6.92-3.67-11.79-6.29-14.63-2.62-2.83-5.59-4.16-8.9-3.99-3.84.21-7.81,2.52-11.91,6.95-4.1,4.42-8.12,10.29-12.04,17.59-3.93,7.3-7.46,15.42-10.6,24.34-3.14,8.93-5.72,18.08-7.73,27.47-2.01,9.39-3.19,18.21-3.54,26.46,0,10.86,1.61,18.52,4.84,22.98,3.23,4.47,7.37,6.56,12.44,6.29,4.88-.26,9.73-2.1,14.53-5.51,4.8-3.41,8.81-7.87,12.04-13.39,3.23-5.51,4.93-11.6,5.11-18.27l-28.02,5.71,4.98-26.27,24.09-4.45c6.63-1.23,13.66-2.66,21.08-4.29,7.42-1.62,13.92-3.11,19.51-4.46-1.22,17.93-4.67,33.74-10.34,47.44-5.67,13.7-12.7,25.16-21.08,34.36-8.38,9.21-17.15,16.25-26.32,21.12-9.17,4.87-17.94,7.53-26.32,7.98Z" fill="#4c69f6"/>
      <path d="M902.81,357.88c.35-2.99.7-5.9,1.05-8.72.35-2.82.7-5.64,1.05-8.46l1.57-14.79c.17-2.46.35-4.75.52-6.86.17-2.11.35-4.04.52-5.81l-22.78,1.23-10.47,38.39c-3.84.73-8.38,1.55-13.62,2.44-5.24.9-10.13,1.73-14.66,2.5-2.79.5-5.54,1-8.25,1.49-2.71.5-5.45,1-8.25,1.49l20.69-69.93c2.44-8.36,5.24-17.88,8.38-28.55,3.14-10.67,6.33-21.61,9.56-32.82,3.23-11.21,6.29-21.74,9.17-31.62,2.88-9.87,5.19-18.18,6.94-24.93,11.87-1.51,23.96-3.21,36.27-5.1,12.31-1.88,24.31-4.2,36-6.93-.88,9.86-1.7,20.97-2.49,33.36s-1.49,25.16-2.09,38.33c-.61,13.17-1.27,26.16-1.96,38.98-.35,12.1-.79,24.6-1.31,37.5-.52,12.9-1.05,26.1-1.57,39.61-2.62.49-5.24.98-7.85,1.47-2.62.49-5.24.98-7.86,1.47-4.37.94-9.17,1.98-14.4,3.14-5.24,1.16-9.95,2.2-14.14,3.12ZM891.03,287.86c1.05-.06,3.01-.25,5.89-.58,2.88-.33,5.63-.65,8.25-.97,2.62-.31,4.19-.49,4.71-.52,0-2.27.35-6.93,1.05-13.98.7-7.04,1.4-14.43,2.09-22.18.35-4.57.74-9.27,1.18-14.12.43-4.84.92-9.81,1.44-14.92l1.57-22.94-3.93.47-6.02,22.91-16.23,66.8Z" fill="#4c69f6"/>
      <path d="M970.37,360.81c-5.24.28-9.56-.76-12.96-3.11-3.4-2.35-5.94-5.37-7.59-9.05-1.66-3.67-2.49-7.44-2.49-11.29,0-7,2.31-13.21,6.94-18.63,4.62-5.41,11.04-8.34,19.25-8.78,10.12-.54,17.72,1.46,22.78,6,5.06,4.55,7.59,9.88,7.59,16.01,0,7-2.88,13.42-8.64,19.25-5.76,5.83-14.05,9.03-24.88,9.61ZM970.89,294.07c2.79-11.01,5.5-21.92,8.12-32.74,2.62-10.82,5.24-21.64,7.85-32.47,2.44-10.81,5.02-21.68,7.72-32.59,2.71-10.91,5.45-21.79,8.25-32.62,9.95-2.11,19.02-3.91,27.23-5.41,8.2-1.49,14.93-2.81,20.16-3.98-9.43,22.57-18.03,45.23-25.79,67.97-7.77,22.74-15.49,45.62-23.17,68.62-5.07.27-10.13.72-15.19,1.34-5.06.63-10.13,1.25-15.19,1.87Z" fill="#4c69f6"/>
    </g>
    <g>
      <path d="M217.12,428.37c-4.67,0-9.2-.29-13.46-.86l-11.89-1.6,3.12-11.58c8.24-30.58,14.9-61.73,19.8-92.57,4.91-30.95,9.7-62.74,14.25-94.51l.99-6.9,6.73-1.79c9.22-2.45,18.93-4.73,28.86-6.78,10.27-2.11,21.01-3.48,31.94-4.07,1.09-.06,2.2-.09,3.3-.09,5.8,0,11.93.82,18.22,2.44,8.46,2.19,15.71,6.57,21.55,13.02,6.24,6.9,9.4,16.54,9.4,28.64,0,10.32-2.21,20.1-6.56,29.06-4.17,8.58-9.52,16.16-15.93,22.53-2.08,2.06-4.19,3.96-6.34,5.69,3.21,3.5,6.03,7.77,8.42,12.77,3.12,6.53,4.69,14.44,4.69,23.52,0,12.66-3.77,24.45-11.21,35.05-7.01,9.99-16.4,18.54-27.9,25.43-10.63,6.55-22.25,11.82-34.54,15.66-12.29,3.84-24.69,6.12-36.87,6.77-2.22.12-4.44.18-6.57.18ZM272.69,331.38c-.71,4.04-1.47,8.22-2.3,12.5-.32,1.67-.63,3.33-.94,4.98,1.9-.7,3.75-1.54,5.55-2.49,2.56-1.37,4.61-3.04,6.25-5.11,1.05-1.33,1.52-2.82,1.52-4.83,0-1.33-.27-1.56-.36-1.63-1.53-1.26-3.44-2.15-5.8-2.71-1.35-.32-2.66-.55-3.92-.69ZM284.3,267.65c-.31,1.72-.62,3.36-.92,4.93,2.54-1.17,4.68-2.38,6.39-3.64-.99-.41-2.12-.73-3.37-.96-.71-.13-1.41-.24-2.1-.33Z"/>
      <path d="M322.48,337.36c2.44-8.33,5.23-17.86,8.38-28.54,3.05-10.35,6.17-21.07,9.54-32.77,3.23-11.21,6.29-21.76,9.17-31.65,2.83-9.7,5.14-17.99,6.85-24.62l1.79-6.91,7.08-.9c11.73-1.5,23.84-3.2,36-5.07,11.95-1.83,23.8-4.11,35.21-6.77l14.17-3.31-1.29,14.5c-.86,9.64-1.69,20.78-2.47,33.1-.78,12.27-1.48,25.11-2.08,38.15-.61,13.03-1.27,26.12-1.96,38.93-.35,12.18-.79,24.79-1.31,37.49-.52,12.89-1.05,26.09-1.57,39.59l-.33,8.38-8.24,1.56c-2.09.39-13.01,2.44-15.59,2.92-4.31.93-9.04,1.96-14.2,3.1-5.24,1.16-9.95,2.2-14.15,3.12l-14.43,3.18,1.7-14.68c.35-3.02.7-5.96,1.06-8.81,0,0,.71-5.79,1.04-8.37l1.54-14.51c.01-.19.03-.38.04-.57l-3.12.17-10.2,37.39-6.46,1.23c-3.95.75-8.6,1.59-13.82,2.48-5.21.89-10.09,1.72-14.62,2.49-2.77.5-5.49.99-8.17,1.48-2.71.5-5.48,1-8.29,1.5l-16.79,3,25.52-86.28Z"/>
      <path d="M422.6,361.28l62.36-88.6c-2.39.43-4.71.88-6.94,1.33-5.09,1.03-8.79,1.85-11,2.44l-.64.17-20.46,2.81,7.58-63.22,129.56-16.19-9.84,52.93-60.22,89.09c2.92-.32,5.97-.66,9.14-1.02,6.97-.79,14-1.65,20.91-2.56l11.9-1.56v61.9l-9.97.53c-1.9.1-7.18.56-15.68,1.36-8.62.82-20.31,2.06-34.76,3.7-13.07,1.57-25.06,3.14-35.56,4.65-10.28,1.48-18.14,2.88-23.38,4.14l-13.01,3.14v-55.06Z"/>
      <path d="M534.69,396.61c2.38-10.04,4.82-21.63,7.23-34.45,2.4-12.78,4.86-26.35,7.31-40.32,2.44-13.94,4.72-27.46,6.79-40.16,1.91-11.27,3.8-22.82,5.62-34.4,1.8-11.46,3.6-23.28,5.35-35.12l1.07-7.23,63.17-13.56-14.37,85.02c-2.7,16.95-4.97,31.4-6.91,44.08-2.01,13.08-3.93,25.45-5.77,37.12l-6.96,44.18-8.51.46c-2.95.16-6.69.57-11.09,1.21-4.56.67-9.19,1.44-13.76,2.28-4.72.87-8.52,1.62-11.58,2.28-.67.14-1.22.27-1.67.37l-24.97,26.39,9.06-38.16Z"/>
      <path d="M587.51,395.65c5.21-25.37,10.22-50.23,14.88-73.87,3.78-22.09,7.56-43.83,11.25-64.62,3.6-20.3,6.2-39.14,7.74-56.01l.96-10.49,10.49.96c.5.05.95.07,1.34.07.14,0,.28,0,.41,0l7.99-.43c4.35-.23,9.29-.63,14.69-1.17,5.4-.54,10.63-1.05,15.55-1.5l9.42-.86,1.86,9.27c1.23,6.1,2.42,12.16,3.55,18.01,1.14,5.94,2.17,11.8,3.05,17.42.22,1.24.46,2.5.69,3.78.38-1.87.77-3.68,1.14-5.45l9.07-42.53,54.44-9.64-3.39,15.39c-2.9,13.17-5.71,26.43-8.34,39.41-2.65,13.06-5.1,25.6-7.3,37.28l-.03.14c-4.33,21.43-8.19,41.87-11.47,60.75-2.9,16.67-5.21,31.55-6.89,44.32.32.83.53,1.69.62,2.55.49,4.38-1.78,9.63-7.95,11.49-.62.19-1.37.38-2.36.6-2.41.55-5.98,1.33-11.23,2.46-4.63,1-9.73,2.25-15.16,3.73-5.01,1.37-9.5,2.95-13.34,4.69l-13.73,6.25-1.13-15.04c-.52-6.96-1.04-13.75-1.57-20.36-.29-3.67-.61-7.33-.97-10.96l-6.68,33.86-61.13,17.57,3.5-17.05Z"/>
      <path d="M770.9,403.91c-7,0-13.8-1.38-20.22-4.11-7.48-3.17-13.95-8.31-19.23-15.26-5.18-6.42-9.23-14.59-12.04-24.29-2.71-9.34-4.08-20.43-4.08-32.93,0-23.76,3.49-45.07,10.36-63.33,6.85-18.2,15.74-33.82,26.43-46.44,10.54-12.65,22.21-22.48,34.61-29.12,12.59-6.74,24.68-10.47,35.96-11.08,1.29-.07,2.58-.1,3.83-.1,9.95,0,18.52,2.25,25.45,6.68,7.75,4.96,13.52,11.87,17.14,20.52,3.32,7.95,5.01,16.93,5.01,26.69v8.27l-54.3,13.26-2.37-10.44c-1.65-7.27-3.42-9.46-3.75-9.82-.32-.35-.55-.52-.67-.6-.53.1-2.19.89-4.69,3.58-3.48,3.75-7.01,8.94-10.49,15.42-3.65,6.79-7,14.48-9.95,22.85-1.49,4.23-2.85,8.54-4.08,12.9l30.98-5.72c6.48-1.2,13.46-2.62,20.74-4.22,7.14-1.56,13.63-3.05,19.29-4.41l13.96-3.37-.98,14.33c-1.29,18.98-5.04,36.05-11.12,50.75-6.12,14.77-13.86,27.36-23.02,37.42-9.16,10.06-18.97,17.91-29.16,23.33-10.49,5.57-20.82,8.67-30.69,9.2-.98.05-1.96.08-2.93.08ZM778,334.6c.7,4,1.67,5.71,2.08,6.27,1.42,1.96,2.32,1.96,3.04,1.96.1,0,.2,0,.3,0,2.88-.16,5.83-1.33,9-3.58,3.37-2.4,6.19-5.46,8.58-9.33l-23,4.69ZM783.22,288.74c-.99,3.66-1.88,7.36-2.67,11.07-1.35,6.3-2.3,12.37-2.85,18.11l5.53-29.18Z"/>
      <path d="M850.62,308.92c2.43-8.33,5.23-17.86,8.38-28.54,3.02-10.26,6.14-20.98,9.54-32.76,3.23-11.22,6.29-21.77,9.17-31.65,2.84-9.74,5.15-18.02,6.85-24.62l1.79-6.91,7.08-.9c11.73-1.5,23.84-3.2,36-5.07,11.95-1.83,23.79-4.11,35.21-6.77l14.17-3.31-1.29,14.5c-.85,9.61-1.68,20.75-2.47,33.1-.78,12.33-1.48,25.16-2.08,38.15-.61,13.03-1.27,26.13-1.96,38.93-.36,12.29-.8,24.91-1.31,37.49-.52,12.89-1.05,26.09-1.57,39.59l-.33,8.38-8.25,1.56s-13.01,2.44-15.59,2.92c-4.31.93-9.04,1.96-14.2,3.1-5.24,1.16-9.95,2.2-14.15,3.12l-14.43,3.18,1.7-14.68c.35-3.02.7-5.96,1.06-8.81l1.04-8.37,1.54-14.51c.01-.19.03-.38.04-.58l-3.12.17-10.2,37.39-6.46,1.23c-3.97.76-8.62,1.59-13.82,2.48-5.21.89-10.09,1.72-14.62,2.49-2.77.5-5.49.99-8.17,1.48-2.71.5-5.48,1-8.29,1.5l-16.79,3,25.52-86.28Z"/>
      <path d="M979.25,392.45c-6.66,0-12.48-1.69-17.3-5.02-4.99-3.45-8.76-7.95-11.21-13.39-2.27-5.03-3.42-10.28-3.42-15.62,0-9.55,3.18-18.12,9.46-25.47,3.24-3.79,7.08-6.74,11.48-8.82l2.94-11.59c2.81-11.1,5.54-22.08,8.09-32.63l7.84-32.39c2.46-10.9,5.07-21.91,7.76-32.73,2.71-10.92,5.49-21.93,8.27-32.71l1.63-6.32,6.38-1.35c10.02-2.13,19.28-3.96,27.53-5.46,8.13-1.48,14.78-2.79,19.77-3.9l19.82-4.39-7.82,18.73c-9.31,22.29-17.9,44.94-25.54,67.32-7.73,22.64-15.52,45.7-23.15,68.55l-2.27,6.8-7.15.38c-2.87.15-5.78.37-8.68.65,3.87,1.45,7.27,3.48,10.17,6.08,7.26,6.52,11.09,14.77,11.09,23.85,0,9.84-3.93,18.81-11.68,26.65-7.63,7.72-18.33,12-31.8,12.72-.75.04-1.49.06-2.21.06Z"/>
    </g>
    <g>
      <path d="M217.12,428.37c-4.67,0-9.2-.29-13.46-.86l-11.89-1.6,3.12-11.58c8.24-30.58,14.9-61.73,19.8-92.57,4.91-30.95,9.7-62.74,14.25-94.51l.99-6.9,6.73-1.79c9.22-2.45,18.93-4.73,28.86-6.78,10.27-2.11,21.01-3.48,31.94-4.07,1.09-.06,2.2-.09,3.3-.09,5.8,0,11.93.82,18.22,2.44,8.46,2.19,15.71,6.57,21.55,13.02,6.24,6.9,9.4,16.54,9.4,28.64,0,10.32-2.21,20.1-6.56,29.06-4.17,8.58-9.52,16.16-15.93,22.53-2.08,2.06-4.19,3.96-6.34,5.69,3.21,3.5,6.03,7.77,8.42,12.77,3.12,6.53,4.69,14.44,4.69,23.52,0,12.66-3.77,24.45-11.21,35.05-7.01,9.99-16.4,18.54-27.9,25.43-10.63,6.55-22.25,11.82-34.54,15.66-12.29,3.84-24.69,6.12-36.87,6.77-2.22.12-4.44.18-6.57.18ZM272.69,331.38c-.71,4.04-1.47,8.22-2.3,12.5-.32,1.67-.63,3.33-.94,4.98,1.9-.7,3.75-1.54,5.55-2.49,2.56-1.37,4.61-3.04,6.25-5.11,1.05-1.33,1.52-2.82,1.52-4.83,0-1.33-.27-1.56-.36-1.63-1.53-1.26-3.44-2.15-5.8-2.71-1.35-.32-2.66-.55-3.92-.69ZM284.3,267.65c-.31,1.72-.62,3.36-.92,4.93,2.54-1.17,4.68-2.38,6.39-3.64-.99-.41-2.12-.73-3.37-.96-.71-.13-1.41-.24-2.1-.33Z"/>
      <path d="M322.48,337.36c2.44-8.33,5.23-17.86,8.38-28.54,3.05-10.35,6.17-21.07,9.54-32.77,3.23-11.21,6.29-21.76,9.17-31.65,2.83-9.7,5.14-17.99,6.85-24.62l1.79-6.91,7.08-.9c11.73-1.5,23.84-3.2,36-5.07,11.95-1.83,23.8-4.11,35.21-6.77l14.17-3.31-1.29,14.5c-.86,9.64-1.69,20.78-2.47,33.1-.78,12.27-1.48,25.11-2.08,38.15-.61,13.03-1.27,26.12-1.96,38.93-.35,12.18-.79,24.79-1.31,37.49-.52,12.89-1.05,26.09-1.57,39.59l-.33,8.38-8.24,1.56c-2.09.39-13.01,2.44-15.59,2.92-4.31.93-9.04,1.96-14.2,3.1-5.24,1.16-9.95,2.2-14.15,3.12l-14.43,3.18,1.7-14.68c.35-3.02.7-5.96,1.06-8.81,0,0,.71-5.79,1.04-8.37l1.54-14.51c.01-.19.03-.38.04-.57l-3.12.17-10.2,37.39-6.46,1.23c-3.95.75-8.6,1.59-13.82,2.48-5.21.89-10.09,1.72-14.62,2.49-2.77.5-5.49.99-8.17,1.48-2.71.5-5.48,1-8.29,1.5l-16.79,3,25.52-86.28Z"/>
      <path d="M422.6,361.28l62.36-88.6c-2.39.43-4.71.88-6.94,1.33-5.09,1.03-8.79,1.85-11,2.44l-.64.17-20.46,2.81,7.58-63.22,129.56-16.19-9.84,52.93-60.22,89.09c2.92-.32,5.97-.66,9.14-1.02,6.97-.79,14-1.65,20.91-2.56l11.9-1.56v61.9l-9.97.53c-1.9.1-7.18.56-15.68,1.36-8.62.82-20.31,2.06-34.76,3.7-13.07,1.57-25.06,3.14-35.56,4.65-10.28,1.48-18.14,2.88-23.38,4.14l-13.01,3.14v-55.06Z"/>
      <path d="M534.69,396.61c2.38-10.04,4.82-21.63,7.23-34.45,2.4-12.78,4.86-26.35,7.31-40.32,2.44-13.94,4.72-27.46,6.79-40.16,1.91-11.27,3.8-22.82,5.62-34.4,1.8-11.46,3.6-23.28,5.35-35.12l1.07-7.23,63.17-13.56-14.37,85.02c-2.7,16.95-4.97,31.4-6.91,44.08-2.01,13.08-3.93,25.45-5.77,37.12l-6.96,44.18-8.51.46c-2.95.16-6.69.57-11.09,1.21-4.56.67-9.19,1.44-13.76,2.28-4.72.87-8.52,1.62-11.58,2.28-.67.14-1.22.27-1.67.37l-24.97,26.39,9.06-38.16Z"/>
      <path d="M587.51,395.65c5.21-25.37,10.22-50.23,14.88-73.87,3.78-22.09,7.56-43.83,11.25-64.62,3.6-20.3,6.2-39.14,7.74-56.01l.96-10.49,10.49.96c.5.05.95.07,1.34.07.14,0,.28,0,.41,0l7.99-.43c4.35-.23,9.29-.63,14.69-1.17,5.4-.54,10.63-1.05,15.55-1.5l9.42-.86,1.86,9.27c1.23,6.1,2.42,12.16,3.55,18.01,1.14,5.94,2.17,11.8,3.05,17.42.22,1.24.46,2.5.69,3.78.38-1.87.77-3.68,1.14-5.45l9.07-42.53,54.44-9.64-3.39,15.39c-2.9,13.17-5.71,26.43-8.34,39.41-2.65,13.06-5.1,25.6-7.3,37.28l-.03.14c-4.33,21.43-8.19,41.87-11.47,60.75-2.9,16.67-5.21,31.55-6.89,44.32.32.83.53,1.69.62,2.55.49,4.38-1.78,9.63-7.95,11.49-.62.19-1.37.38-2.36.6-2.41.55-5.98,1.33-11.23,2.46-4.63,1-9.73,2.25-15.16,3.73-5.01,1.37-9.5,2.95-13.34,4.69l-13.73,6.25-1.13-15.04c-.52-6.96-1.04-13.75-1.57-20.36-.29-3.67-.61-7.33-.97-10.96l-6.68,33.86-61.13,17.57,3.5-17.05Z"/>
      <path d="M770.9,403.91c-7,0-13.8-1.38-20.22-4.11-7.48-3.17-13.95-8.31-19.23-15.26-5.18-6.42-9.23-14.59-12.04-24.29-2.71-9.34-4.08-20.43-4.08-32.93,0-23.76,3.49-45.07,10.36-63.33,6.85-18.2,15.74-33.82,26.43-46.44,10.54-12.65,22.21-22.48,34.61-29.12,12.59-6.74,24.68-10.47,35.96-11.08,1.29-.07,2.58-.1,3.83-.1,9.95,0,18.52,2.25,25.45,6.68,7.75,4.96,13.52,11.87,17.14,20.52,3.32,7.95,5.01,16.93,5.01,26.69v8.27l-54.3,13.26-2.37-10.44c-1.65-7.27-3.42-9.46-3.75-9.82-.32-.35-.55-.52-.67-.6-.53.1-2.19.89-4.69,3.58-3.48,3.75-7.01,8.94-10.49,15.42-3.65,6.79-7,14.48-9.95,22.85-1.49,4.23-2.85,8.54-4.08,12.9l30.98-5.72c6.48-1.2,13.46-2.62,20.74-4.22,7.14-1.56,13.63-3.05,19.29-4.41l13.96-3.37-.98,14.33c-1.29,18.98-5.04,36.05-11.12,50.75-6.12,14.77-13.86,27.36-23.02,37.42-9.16,10.06-18.97,17.91-29.16,23.33-10.49,5.57-20.82,8.67-30.69,9.2-.98.05-1.96.08-2.93.08ZM778,334.6c.7,4,1.67,5.71,2.08,6.27,1.42,1.96,2.32,1.96,3.04,1.96.1,0,.2,0,.3,0,2.88-.16,5.83-1.33,9-3.58,3.37-2.4,6.19-5.46,8.58-9.33l-23,4.69ZM783.22,288.74c-.99,3.66-1.88,7.36-2.67,11.07-1.35,6.3-2.3,12.37-2.85,18.11l5.53-29.18Z"/>
      <path d="M850.62,308.92c2.43-8.33,5.23-17.86,8.38-28.54,3.02-10.26,6.14-20.98,9.54-32.76,3.23-11.22,6.29-21.77,9.17-31.65,2.84-9.74,5.15-18.02,6.85-24.62l1.79-6.91,7.08-.9c11.73-1.5,23.84-3.2,36-5.07,11.95-1.83,23.79-4.11,35.21-6.77l14.17-3.31-1.29,14.5c-.85,9.61-1.68,20.75-2.47,33.1-.78,12.33-1.48,25.16-2.08,38.15-.61,13.03-1.27,26.13-1.96,38.93-.36,12.29-.8,24.91-1.31,37.49-.52,12.89-1.05,26.09-1.57,39.59l-.33,8.38-8.25,1.56s-13.01,2.44-15.59,2.92c-4.31.93-9.04,1.96-14.2,3.1-5.24,1.16-9.95,2.2-14.15,3.12l-14.43,3.18,1.7-14.68c.35-3.02.7-5.96,1.06-8.81l1.04-8.37,1.54-14.51c.01-.19.03-.38.04-.58l-3.12.17-10.2,37.39-6.46,1.23c-3.97.76-8.62,1.59-13.82,2.48-5.21.89-10.09,1.72-14.62,2.49-2.77.5-5.49.99-8.17,1.48-2.71.5-5.48,1-8.29,1.5l-16.79,3,25.52-86.28Z"/>
      <path d="M979.25,392.45c-6.66,0-12.48-1.69-17.3-5.02-4.99-3.45-8.76-7.95-11.21-13.39-2.27-5.03-3.42-10.28-3.42-15.62,0-9.55,3.18-18.12,9.46-25.47,3.24-3.79,7.08-6.74,11.48-8.82l2.94-11.59c2.81-11.1,5.54-22.08,8.09-32.63l7.84-32.39c2.46-10.9,5.07-21.91,7.76-32.73,2.71-10.92,5.49-21.93,8.27-32.71l1.63-6.32,6.38-1.35c10.02-2.13,19.28-3.96,27.53-5.46,8.13-1.48,14.78-2.79,19.77-3.9l19.82-4.39-7.82,18.73c-9.31,22.29-17.9,44.94-25.54,67.32-7.73,22.64-15.52,45.7-23.15,68.55l-2.27,6.8-7.15.38c-2.87.15-5.78.37-8.68.65,3.87,1.45,7.27,3.48,10.17,6.08,7.26,6.52,11.09,14.77,11.09,23.85,0,9.84-3.93,18.81-11.68,26.65-7.63,7.72-18.33,12-31.8,12.72-.75.04-1.49.06-2.21.06Z"/>
    </g>
    <g>
      <path d="M206.59,407.31c-4.67,0-9.2-.29-13.46-.86l-11.89-1.6,3.12-11.58c8.24-30.58,14.9-61.73,19.8-92.57,4.91-30.95,9.7-62.74,14.25-94.51l.99-6.9,6.73-1.79c9.22-2.45,18.93-4.73,28.86-6.78,10.27-2.11,21.01-3.48,31.94-4.07,1.09-.06,2.2-.09,3.3-.09,5.8,0,11.93.82,18.22,2.44,8.46,2.19,15.71,6.57,21.55,13.02,6.24,6.9,9.4,16.54,9.4,28.64,0,10.32-2.21,20.1-6.56,29.06-4.17,8.58-9.52,16.16-15.93,22.53-2.08,2.06-4.19,3.96-6.34,5.69,3.21,3.5,6.03,7.77,8.42,12.77,3.12,6.53,4.69,14.44,4.69,23.52,0,12.66-3.77,24.45-11.21,35.05-7.01,9.99-16.4,18.54-27.9,25.43-10.63,6.55-22.25,11.82-34.54,15.66-12.29,3.84-24.69,6.12-36.87,6.77-2.22.12-4.44.18-6.57.18ZM262.16,310.31c-.71,4.04-1.47,8.22-2.3,12.5-.32,1.67-.63,3.33-.94,4.98,1.9-.7,3.75-1.54,5.55-2.49,2.56-1.37,4.61-3.04,6.25-5.11,1.05-1.33,1.52-2.82,1.52-4.83,0-1.33-.27-1.56-.36-1.63-1.53-1.26-3.44-2.15-5.8-2.71-1.35-.32-2.66-.55-3.92-.69ZM273.77,246.58c-.31,1.72-.62,3.36-.92,4.93,2.54-1.17,4.68-2.38,6.39-3.64-.99-.41-2.12-.73-3.37-.96-.71-.13-1.41-.24-2.1-.33Z"/>
      <path d="M311.95,316.29c2.44-8.33,5.23-17.86,8.38-28.54,3.05-10.35,6.17-21.07,9.54-32.77,3.23-11.21,6.29-21.76,9.17-31.65,2.83-9.7,5.14-17.99,6.85-24.62l1.79-6.91,7.08-.9c11.73-1.5,23.84-3.2,36-5.07,11.95-1.83,23.8-4.11,35.21-6.77l14.17-3.31-1.29,14.5c-.86,9.64-1.69,20.78-2.47,33.1-.78,12.27-1.48,25.11-2.08,38.15-.61,13.03-1.27,26.12-1.96,38.93-.35,12.18-.79,24.79-1.31,37.49-.52,12.89-1.05,26.09-1.57,39.59l-.33,8.38-8.24,1.56c-2.09.39-13.01,2.44-15.59,2.92-4.31.93-9.04,1.96-14.2,3.1-5.24,1.16-9.95,2.2-14.15,3.12l-14.43,3.18,1.7-14.68c.35-3.02.7-5.96,1.06-8.81,0,0,.71-5.79,1.04-8.37l1.54-14.51c.01-.19.03-.38.04-.57l-3.12.17-10.2,37.39-6.46,1.23c-3.95.75-8.6,1.59-13.82,2.48-5.21.89-10.09,1.72-14.62,2.49-2.77.5-5.49.99-8.17,1.48-2.71.5-5.48,1-8.29,1.5l-16.79,3,25.52-86.28Z"/>
      <path d="M412.06,340.21l62.36-88.6c-2.39.43-4.71.88-6.94,1.33-5.09,1.03-8.79,1.85-11,2.44l-.64.17-20.46,2.81,7.58-63.22,129.56-16.19-9.84,52.93-60.22,89.09c2.92-.32,5.97-.66,9.14-1.02,6.97-.79,14-1.65,20.91-2.56l11.9-1.56v61.9l-9.97.53c-1.9.1-7.18.56-15.68,1.36-8.62.82-20.31,2.06-34.76,3.7-13.07,1.57-25.06,3.14-35.56,4.65-10.28,1.48-18.14,2.88-23.38,4.14l-13.01,3.14v-55.06Z"/>
      <path d="M524.16,375.54c2.38-10.04,4.82-21.63,7.23-34.45,2.4-12.78,4.86-26.35,7.31-40.32,2.44-13.94,4.72-27.46,6.79-40.16,1.91-11.27,3.8-22.82,5.62-34.4,1.8-11.46,3.6-23.28,5.35-35.12l1.07-7.23,63.17-13.56-14.37,85.02c-2.7,16.95-4.97,31.4-6.91,44.08-2.01,13.08-3.93,25.45-5.77,37.12l-6.96,44.18-8.51.46c-2.95.16-6.69.57-11.09,1.21-4.56.67-9.19,1.44-13.76,2.28-4.72.87-8.52,1.62-11.58,2.28-.67.14-1.22.27-1.67.37l-24.97,26.39,9.06-38.16Z"/>
      <path d="M576.98,374.59c5.21-25.37,10.22-50.23,14.88-73.87,3.78-22.09,7.56-43.83,11.25-64.62,3.6-20.3,6.2-39.14,7.74-56.01l.96-10.49,10.49.96c.5.05.95.07,1.34.07.14,0,.28,0,.41,0l7.99-.43c4.35-.23,9.29-.63,14.69-1.17,5.4-.54,10.63-1.05,15.55-1.5l9.42-.86,1.86,9.27c1.23,6.1,2.42,12.16,3.55,18.01,1.14,5.94,2.17,11.8,3.05,17.42.22,1.24.46,2.5.69,3.78.38-1.87.77-3.68,1.14-5.45l9.07-42.53,54.44-9.64-3.39,15.39c-2.9,13.17-5.71,26.43-8.34,39.41-2.65,13.06-5.1,25.6-7.3,37.28l-.03.14c-4.33,21.43-8.19,41.87-11.47,60.75-2.9,16.67-5.21,31.55-6.89,44.32.32.83.53,1.69.62,2.55.49,4.38-1.78,9.63-7.95,11.49-.62.19-1.37.38-2.36.6-2.41.55-5.98,1.33-11.23,2.46-4.63,1-9.73,2.25-15.16,3.73-5.01,1.37-9.5,2.95-13.34,4.69l-13.73,6.25-1.13-15.04c-.52-6.96-1.04-13.75-1.57-20.36-.29-3.67-.61-7.33-.97-10.96l-6.68,33.86-61.13,17.57,3.5-17.05Z"/>
      <path d="M760.37,382.84c-7,0-13.8-1.38-20.22-4.11-7.48-3.17-13.95-8.31-19.23-15.26-5.18-6.42-9.23-14.59-12.04-24.29-2.71-9.34-4.08-20.43-4.08-32.93,0-23.76,3.49-45.07,10.36-63.33,6.85-18.2,15.74-33.82,26.43-46.44,10.54-12.65,22.21-22.48,34.61-29.12,12.59-6.74,24.68-10.47,35.96-11.08,1.29-.07,2.58-.1,3.83-.1,9.95,0,18.52,2.25,25.45,6.68,7.75,4.96,13.52,11.87,17.14,20.52,3.32,7.95,5.01,16.93,5.01,26.69v8.27l-54.3,13.26-2.37-10.44c-1.65-7.27-3.42-9.46-3.75-9.82-.32-.35-.55-.52-.67-.6-.53.1-2.19.89-4.69,3.58-3.48,3.75-7.01,8.94-10.49,15.42-3.65,6.79-7,14.48-9.95,22.85-1.49,4.23-2.85,8.54-4.08,12.9l30.98-5.72c6.48-1.2,13.46-2.62,20.74-4.22,7.14-1.56,13.63-3.05,19.29-4.41l13.96-3.37-.98,14.33c-1.29,18.98-5.04,36.05-11.12,50.75-6.12,14.77-13.86,27.36-23.02,37.42-9.16,10.06-18.97,17.91-29.16,23.33-10.49,5.57-20.82,8.67-30.69,9.2-.98.05-1.96.08-2.93.08ZM767.47,313.54c.7,4,1.67,5.71,2.08,6.27,1.42,1.96,2.32,1.96,3.04,1.96.1,0,.2,0,.3,0,2.88-.16,5.83-1.33,9-3.58,3.37-2.4,6.19-5.46,8.58-9.33l-23,4.69ZM772.69,267.68c-.99,3.66-1.88,7.36-2.67,11.07-1.35,6.3-2.3,12.37-2.85,18.11l5.53-29.18Z"/>
      <path d="M840.08,287.86c2.43-8.33,5.23-17.86,8.38-28.54,3.02-10.26,6.14-20.98,9.54-32.76,3.23-11.22,6.29-21.77,9.17-31.65,2.84-9.74,5.15-18.02,6.85-24.62l1.79-6.91,7.08-.9c11.73-1.5,23.84-3.2,36-5.07,11.95-1.83,23.79-4.11,35.21-6.77l14.17-3.31-1.29,14.5c-.85,9.61-1.68,20.75-2.47,33.1-.78,12.33-1.48,25.16-2.08,38.15-.61,13.03-1.27,26.13-1.96,38.93-.36,12.29-.8,24.91-1.31,37.49-.52,12.89-1.05,26.09-1.57,39.59l-.33,8.38-8.25,1.56s-13.01,2.44-15.59,2.92c-4.31.93-9.04,1.96-14.2,3.1-5.24,1.16-9.95,2.2-14.15,3.12l-14.43,3.18,1.7-14.68c.35-3.02.7-5.96,1.06-8.81l1.04-8.37,1.54-14.51c.01-.19.03-.38.04-.58l-3.12.17-10.2,37.39-6.46,1.23c-3.97.76-8.62,1.59-13.82,2.48-5.21.89-10.09,1.72-14.62,2.49-2.77.5-5.49.99-8.17,1.48-2.71.5-5.48,1-8.29,1.5l-16.79,3,25.52-86.28Z"/>
      <path d="M968.72,371.38c-6.66,0-12.48-1.69-17.3-5.02-4.99-3.45-8.76-7.95-11.21-13.39-2.27-5.03-3.42-10.28-3.42-15.62,0-9.55,3.18-18.12,9.46-25.47,3.24-3.79,7.08-6.74,11.48-8.82l2.94-11.59c2.81-11.1,5.54-22.08,8.09-32.63l7.84-32.39c2.46-10.9,5.07-21.91,7.76-32.73,2.71-10.92,5.49-21.93,8.27-32.71l1.63-6.32,6.38-1.35c10.02-2.13,19.28-3.96,27.53-5.46,8.13-1.48,14.78-2.79,19.77-3.9l19.82-4.39-7.82,18.73c-9.31,22.29-17.9,44.94-25.54,67.32-7.73,22.64-15.52,45.7-23.15,68.55l-2.27,6.8-7.15.38c-2.87.15-5.78.37-8.68.65,3.87,1.45,7.27,3.48,10.17,6.08,7.26,6.52,11.09,14.77,11.09,23.85,0,9.84-3.93,18.81-11.68,26.65-7.63,7.72-18.33,12-31.8,12.72-.75.04-1.49.06-2.21.06Z"/>
    </g>
    <g>
      <path d="M212.6,396.62c-6.46.35-12.48.15-18.07-.6,8.38-31.09,15.06-62.31,20.03-93.66,4.98-31.35,9.73-62.9,14.27-94.67,9.07-2.41,18.5-4.63,28.28-6.64,9.77-2.01,19.9-3.3,30.37-3.87,5.76-.31,11.87.37,18.33,2.03,6.46,1.67,11.91,4.96,16.37,9.89,4.45,4.93,6.68,12.12,6.68,21.57,0,8.76-1.83,16.91-5.5,24.46-3.67,7.55-8.29,14.1-13.88,19.66-5.59,5.55-11.35,9.63-17.28,12.22,2.44,1.1,5.32,3.13,8.64,6.1,3.31,2.97,6.19,7.02,8.64,12.14,2.44,5.12,3.67,11.45,3.67,18.98,0,10.51-3.1,20.17-9.3,29-6.2,8.83-14.45,16.32-24.74,22.48-9.95,6.14-20.69,11.01-32.21,14.6-11.52,3.6-22.96,5.7-34.3,6.31ZM245.85,341.77c3.49-.54,7.33-1.35,11.52-2.46,4.19-1.1,8.2-2.67,12.04-4.72,3.84-2.05,7.02-4.67,9.56-7.87,2.53-3.2,3.8-6.99,3.8-11.37s-1.4-7.45-4.19-9.75c-2.79-2.3-6.15-3.91-10.08-4.84-3.93-.93-7.64-1.3-11.13-1.11l-2.09.11c-.88.05-1.57.18-2.09.38-1.05,6.54-2.27,13.43-3.67,20.68-1.4,7.26-2.62,14.24-3.67,20.95ZM259.21,267.25c5.41-1.34,10.56-3.02,15.45-5.03,4.88-2.01,8.86-4.24,11.91-6.68,3.05-2.44,4.58-4.97,4.58-7.6,0-3.32-1.31-5.88-3.93-7.67-2.62-1.78-5.76-3.01-9.43-3.7-3.67-.68-7.07-.93-10.21-.76l-2.62.14c-1.22,7.07-2.36,13.22-3.4,18.44-1.05,5.22-1.83,9.51-2.36,12.87Z" fill="#fff"/>
      <path d="M374.68,386.31c.35-2.99.7-5.9,1.05-8.72.35-2.82.7-5.64,1.05-8.46l1.57-14.79c.17-2.46.35-4.75.52-6.86.17-2.11.35-4.05.52-5.81l-22.78,1.23-10.47,38.38c-3.84.73-8.38,1.55-13.62,2.44-5.24.9-10.13,1.73-14.66,2.5-2.79.5-5.54,1-8.25,1.49-2.71.5-5.45,1-8.25,1.49l20.69-69.93c2.44-8.36,5.24-17.88,8.38-28.55,3.14-10.67,6.33-21.62,9.56-32.82,3.23-11.21,6.28-21.74,9.16-31.62,2.88-9.87,5.19-18.18,6.94-24.93,11.87-1.51,23.96-3.21,36.27-5.1,12.31-1.89,24.31-4.2,36-6.93-.88,9.86-1.7,20.97-2.49,33.36-.79,12.39-1.48,25.16-2.09,38.33-.61,13.17-1.27,26.16-1.96,38.98-.35,12.1-.79,24.6-1.31,37.5-.52,12.9-1.05,26.1-1.57,39.61-2.62.49-5.24.98-7.85,1.47-2.62.49-5.24.98-7.85,1.47-4.37.94-9.17,1.98-14.4,3.14-5.24,1.16-9.95,2.2-14.14,3.12ZM362.89,316.3c1.05-.06,3.01-.25,5.89-.58,2.88-.33,5.63-.65,8.25-.97,2.62-.31,4.19-.49,4.71-.52,0-2.27.35-6.93,1.05-13.98.7-7.04,1.4-14.43,2.09-22.18.35-4.57.74-9.27,1.18-14.12.43-4.84.92-9.81,1.44-14.92l1.57-22.94-3.93.47-6.02,22.91-16.23,66.8Z" fill="#fff"/>
      <path d="M422.6,381.89v-38.35l74.36-105.65c-3.84.21-8.73.78-14.66,1.71-5.94.94-11.57,1.94-16.89,3.01-5.33,1.07-9.21,1.94-11.65,2.6l-6.28.86,4.98-41.5,107.09-13.38-6.81,36.61-71.48,105.76c2.44-.13,6.5-.48,12.18-1.05,5.67-.57,12.13-1.26,19.38-2.09,7.24-.82,14.27-1.69,21.08-2.58v39.92c-2.09.11-7.46.58-16.1,1.39-8.64.82-20.29,2.06-34.96,3.72-13.27,1.59-25.23,3.16-35.87,4.69-10.65,1.54-18.77,2.98-24.35,4.33Z" fill="#fff"/>
      <path d="M534.4,377.98c2.44-10.29,4.88-21.93,7.33-34.93,2.44-13,4.89-26.48,7.33-40.45,2.44-13.96,4.71-27.39,6.81-40.29,1.92-11.31,3.8-22.79,5.63-34.45s3.62-23.39,5.37-35.22l40.85-8.77-11.78,69.71c-2.62,16.42-4.93,31.17-6.94,44.24-2.01,13.07-3.93,25.43-5.76,37.08s-3.71,23.58-5.63,35.76c-3.32.18-7.33.62-12.04,1.3-4.71.69-9.43,1.47-14.14,2.34-4.71.87-8.69,1.65-11.91,2.35-3.23.7-4.93,1.14-5.11,1.33Z" fill="#fff"/>
      <path d="M587.29,376.71c5.24-25.5,10.21-50.19,14.93-74.08,3.84-22.44,7.59-44.01,11.26-64.69,3.67-20.69,6.29-39.65,7.86-56.89,1.22.11,2.31.14,3.27.09.96-.05,1.79-.1,2.49-.13l5.5-.3c4.54-.24,9.6-.65,15.19-1.21,5.58-.56,10.74-1.06,15.45-1.49,1.22,6.07,2.4,12.04,3.54,17.93,1.13,5.89,2.14,11.62,3.01,17.17.87,4.86,1.83,9.84,2.88,14.95,1.05,5.11,2.09,10.26,3.14,15.46.87,5.21,1.79,10.02,2.75,14.43.96,4.41,1.79,8.44,2.49,12.08,2.09-10.44,4.06-20.71,5.89-30.79,1.83-10.08,3.62-19.19,5.37-27.34l7.59-35.6,31.94-5.66c-2.97,13.47-5.76,26.66-8.38,39.59-2.62,12.92-5.07,25.4-7.33,37.43-4.37,21.6-8.21,41.94-11.52,61.03-3.32,19.09-5.85,35.69-7.59,49.79,1.92-.1,1.61.13-.92.71-2.53.58-6.24,1.39-11.13,2.44-4.89,1.05-10.13,2.34-15.71,3.87-5.59,1.53-10.56,3.29-14.92,5.27-.52-6.97-1.05-13.77-1.57-20.4-.52-6.62-1.14-13.07-1.83-19.34-1.05-11.15-2.27-22.2-3.67-33.16-1.4-10.96-2.79-19.63-4.19-26.04-1.22,7.77-2.71,16.65-4.45,26.64-1.75,9.99-3.67,20.03-5.76,30.12l-7.33,37.17-38.23,10.99Z" fill="#fff"/>
      <path d="M762.73,372.25c-6.46.35-12.61-.72-18.46-3.21-5.85-2.48-10.87-6.51-15.06-12.06-4.37-5.37-7.77-12.28-10.21-20.72-2.45-8.45-3.67-18.45-3.67-30.01,0-22.59,3.23-42.46,9.69-59.62,6.46-17.16,14.66-31.61,24.61-43.35,9.78-11.73,20.29-20.62,31.55-26.65,11.26-6.03,21.77-9.31,31.55-9.84,9.43-.51,17.11,1.14,23.04,4.93,5.93,3.8,10.3,9.03,13.09,15.71,2.79,6.68,4.19,14.22,4.19,22.62l-35.87,8.76c-1.57-6.92-3.67-11.79-6.29-14.63-2.62-2.83-5.59-4.16-8.9-3.99-3.84.21-7.81,2.52-11.91,6.95-4.1,4.42-8.12,10.29-12.04,17.59-3.93,7.3-7.46,15.42-10.6,24.34-3.14,8.93-5.72,18.08-7.73,27.47-2.01,9.39-3.19,18.21-3.54,26.46,0,10.86,1.61,18.52,4.84,22.98,3.23,4.47,7.37,6.56,12.44,6.29,4.88-.26,9.73-2.1,14.53-5.51,4.8-3.41,8.81-7.87,12.04-13.39,3.23-5.51,4.93-11.6,5.11-18.27l-28.02,5.71,4.98-26.27,24.09-4.45c6.63-1.23,13.66-2.66,21.08-4.29,7.42-1.62,13.92-3.11,19.51-4.46-1.22,17.93-4.67,33.74-10.34,47.44-5.67,13.7-12.7,25.16-21.08,34.36-8.38,9.21-17.15,16.25-26.32,21.12-9.17,4.87-17.94,7.53-26.32,7.98Z" fill="#fff"/>
      <path d="M902.81,357.88c.35-2.99.7-5.9,1.05-8.72.35-2.82.7-5.64,1.05-8.46l1.57-14.79c.17-2.46.35-4.75.52-6.86.17-2.11.35-4.04.52-5.81l-22.78,1.23-10.47,38.39c-3.84.73-8.38,1.55-13.62,2.44-5.24.9-10.13,1.73-14.66,2.5-2.79.5-5.54,1-8.25,1.49-2.71.5-5.45,1-8.25,1.49l20.69-69.93c2.44-8.36,5.24-17.88,8.38-28.55,3.14-10.67,6.33-21.61,9.56-32.82,3.23-11.21,6.29-21.74,9.17-31.62,2.88-9.87,5.19-18.18,6.94-24.93,11.87-1.51,23.96-3.21,36.27-5.1,12.31-1.88,24.31-4.2,36-6.93-.88,9.86-1.7,20.97-2.49,33.36s-1.49,25.16-2.09,38.33c-.61,13.17-1.27,26.16-1.96,38.98-.35,12.1-.79,24.6-1.31,37.5-.52,12.9-1.05,26.1-1.57,39.61-2.62.49-5.24.98-7.85,1.47-2.62.49-5.24.98-7.86,1.47-4.37.94-9.17,1.98-14.4,3.14-5.24,1.16-9.95,2.2-14.14,3.12ZM891.03,287.86c1.05-.06,3.01-.25,5.89-.58,2.88-.33,5.63-.65,8.25-.97,2.62-.31,4.19-.49,4.71-.52,0-2.27.35-6.93,1.05-13.98.7-7.04,1.4-14.43,2.09-22.18.35-4.57.74-9.27,1.18-14.12.43-4.84.92-9.81,1.44-14.92l1.57-22.94-3.93.47-6.02,22.91-16.23,66.8Z" fill="#fff"/>
      <path d="M970.37,360.81c-5.24.28-9.56-.76-12.96-3.11-3.4-2.35-5.94-5.37-7.59-9.05-1.66-3.67-2.49-7.44-2.49-11.29,0-7,2.31-13.21,6.94-18.63,4.62-5.41,11.04-8.34,19.25-8.78,10.12-.54,17.72,1.46,22.78,6,5.06,4.55,7.59,9.88,7.59,16.01,0,7-2.88,13.42-8.64,19.25-5.76,5.83-14.05,9.03-24.88,9.61ZM970.89,294.07c2.79-11.01,5.5-21.92,8.12-32.74,2.62-10.82,5.24-21.64,7.85-32.47,2.44-10.81,5.02-21.68,7.72-32.59,2.71-10.91,5.45-21.79,8.25-32.62,9.95-2.11,19.02-3.91,27.23-5.41,8.2-1.49,14.93-2.81,20.16-3.98-9.43,22.57-18.03,45.23-25.79,67.97-7.77,22.74-15.49,45.62-23.17,68.62-5.07.27-10.13.72-15.19,1.34-5.06.63-10.13,1.25-15.19,1.87Z" fill="#fff"/>
    </g>
    <g>
      <path d="M212.6,396.62c-6.46.35-12.48.15-18.07-.6,8.38-31.09,15.06-62.31,20.03-93.66,4.98-31.35,9.73-62.9,14.27-94.67,9.07-2.41,18.5-4.63,28.28-6.64,9.77-2.01,19.9-3.3,30.37-3.87,5.76-.31,11.87.37,18.33,2.03,6.46,1.67,11.91,4.96,16.37,9.89,4.45,4.93,6.68,12.12,6.68,21.57,0,8.76-1.83,16.91-5.5,24.46-3.67,7.55-8.29,14.1-13.88,19.66-5.59,5.55-11.35,9.63-17.28,12.22,2.44,1.1,5.32,3.13,8.64,6.1,3.31,2.97,6.19,7.02,8.64,12.14,2.44,5.12,3.67,11.45,3.67,18.98,0,10.51-3.1,20.17-9.3,29-6.2,8.83-14.45,16.32-24.74,22.48-9.95,6.14-20.69,11.01-32.21,14.6-11.52,3.6-22.96,5.7-34.3,6.31ZM245.85,341.77c3.49-.54,7.33-1.35,11.52-2.46,4.19-1.1,8.2-2.67,12.04-4.72,3.84-2.05,7.02-4.67,9.56-7.87,2.53-3.2,3.8-6.99,3.8-11.37s-1.4-7.45-4.19-9.75c-2.79-2.3-6.15-3.91-10.08-4.84-3.93-.93-7.64-1.3-11.13-1.11l-2.09.11c-.88.05-1.57.18-2.09.38-1.05,6.54-2.27,13.43-3.67,20.68-1.4,7.26-2.62,14.24-3.67,20.95ZM259.21,267.25c5.41-1.34,10.56-3.02,15.45-5.03,4.88-2.01,8.86-4.24,11.91-6.68,3.05-2.44,4.58-4.97,4.58-7.6,0-3.32-1.31-5.88-3.93-7.67-2.62-1.78-5.76-3.01-9.43-3.7-3.67-.68-7.07-.93-10.21-.76l-2.62.14c-1.22,7.07-2.36,13.22-3.4,18.44-1.05,5.22-1.83,9.51-2.36,12.87Z" fill="url(#linear-gradient)"/>
      <path d="M374.68,386.31c.35-2.99.7-5.9,1.05-8.72.35-2.82.7-5.64,1.05-8.46l1.57-14.79c.17-2.46.35-4.75.52-6.86.17-2.11.35-4.05.52-5.81l-22.78,1.23-10.47,38.38c-3.84.73-8.38,1.55-13.62,2.44-5.24.9-10.13,1.73-14.66,2.5-2.79.5-5.54,1-8.25,1.49-2.71.5-5.45,1-8.25,1.49l20.69-69.93c2.44-8.36,5.24-17.88,8.38-28.55,3.14-10.67,6.33-21.62,9.56-32.82,3.23-11.21,6.28-21.74,9.16-31.62,2.88-9.87,5.19-18.18,6.94-24.93,11.87-1.51,23.96-3.21,36.27-5.1,12.31-1.89,24.31-4.2,36-6.93-.88,9.86-1.7,20.97-2.49,33.36-.79,12.39-1.48,25.16-2.09,38.33-.61,13.17-1.27,26.16-1.96,38.98-.35,12.1-.79,24.6-1.31,37.5-.52,12.9-1.05,26.1-1.57,39.61-2.62.49-5.24.98-7.85,1.47-2.62.49-5.24.98-7.85,1.47-4.37.94-9.17,1.98-14.4,3.14-5.24,1.16-9.95,2.2-14.14,3.12ZM362.89,316.3c1.05-.06,3.01-.25,5.89-.58,2.88-.33,5.63-.65,8.25-.97,2.62-.31,4.19-.49,4.71-.52,0-2.27.35-6.93,1.05-13.98.7-7.04,1.4-14.43,2.09-22.18.35-4.57.74-9.27,1.18-14.12.43-4.84.92-9.81,1.44-14.92l1.57-22.94-3.93.47-6.02,22.91-16.23,66.8Z" fill="url(#linear-gradient)"/>
      <path d="M422.6,381.89v-38.35l74.36-105.65c-3.84.21-8.73.78-14.66,1.71-5.94.94-11.57,1.94-16.89,3.01-5.33,1.07-9.21,1.94-11.65,2.6l-6.28.86,4.98-41.5,107.09-13.38-6.81,36.61-71.48,105.76c2.44-.13,6.5-.48,12.18-1.05,5.67-.57,12.13-1.26,19.38-2.09,7.24-.82,14.27-1.69,21.08-2.58v39.92c-2.09.11-7.46.58-16.1,1.39-8.64.82-20.29,2.06-34.96,3.72-13.27,1.59-25.23,3.16-35.87,4.69-10.65,1.54-18.77,2.98-24.35,4.33Z" fill="url(#linear-gradient)"/>
      <path d="M534.4,377.98c2.44-10.29,4.88-21.93,7.33-34.93,2.44-13,4.89-26.48,7.33-40.45,2.44-13.96,4.71-27.39,6.81-40.29,1.92-11.31,3.8-22.79,5.63-34.45s3.62-23.39,5.37-35.22l40.85-8.77-11.78,69.71c-2.62,16.42-4.93,31.17-6.94,44.24-2.01,13.07-3.93,25.43-5.76,37.08s-3.71,23.58-5.63,35.76c-3.32.18-7.33.62-12.04,1.3-4.71.69-9.43,1.47-14.14,2.34-4.71.87-8.69,1.65-11.91,2.35-3.23.7-4.93,1.14-5.11,1.33Z" fill="url(#linear-gradient)"/>
      <path d="M587.29,376.71c5.24-25.5,10.21-50.19,14.93-74.08,3.84-22.44,7.59-44.01,11.26-64.69,3.67-20.69,6.29-39.65,7.86-56.89,1.22.11,2.31.14,3.27.09.96-.05,1.79-.1,2.49-.13l5.5-.3c4.54-.24,9.6-.65,15.19-1.21,5.58-.56,10.74-1.06,15.45-1.49,1.22,6.07,2.4,12.04,3.54,17.93,1.13,5.89,2.14,11.62,3.01,17.17.87,4.86,1.83,9.84,2.88,14.95,1.05,5.11,2.09,10.26,3.14,15.46.87,5.21,1.79,10.02,2.75,14.43.96,4.41,1.79,8.44,2.49,12.08,2.09-10.44,4.06-20.71,5.89-30.79,1.83-10.08,3.62-19.19,5.37-27.34l7.59-35.6,31.94-5.66c-2.97,13.47-5.76,26.66-8.38,39.59-2.62,12.92-5.07,25.4-7.33,37.43-4.37,21.6-8.21,41.94-11.52,61.03-3.32,19.09-5.85,35.69-7.59,49.79,1.92-.1,1.61.13-.92.71-2.53.58-6.24,1.39-11.13,2.44-4.89,1.05-10.13,2.34-15.71,3.87-5.59,1.53-10.56,3.29-14.92,5.27-.52-6.97-1.05-13.77-1.57-20.4-.52-6.62-1.14-13.07-1.83-19.34-1.05-11.15-2.27-22.2-3.67-33.16-1.4-10.96-2.79-19.63-4.19-26.04-1.22,7.77-2.71,16.65-4.45,26.64-1.75,9.99-3.67,20.03-5.76,30.12l-7.33,37.17-38.23,10.99Z" fill="url(#linear-gradient)"/>
      <path d="M762.73,372.25c-6.46.35-12.61-.72-18.46-3.21-5.85-2.48-10.87-6.51-15.06-12.06-4.37-5.37-7.77-12.28-10.21-20.72-2.45-8.45-3.67-18.45-3.67-30.01,0-22.59,3.23-42.46,9.69-59.62,6.46-17.16,14.66-31.61,24.61-43.35,9.78-11.73,20.29-20.62,31.55-26.65,11.26-6.03,21.77-9.31,31.55-9.84,9.43-.51,17.11,1.14,23.04,4.93,5.93,3.8,10.3,9.03,13.09,15.71,2.79,6.68,4.19,14.22,4.19,22.62l-35.87,8.76c-1.57-6.92-3.67-11.79-6.29-14.63-2.62-2.83-5.59-4.16-8.9-3.99-3.84.21-7.81,2.52-11.91,6.95-4.1,4.42-8.12,10.29-12.04,17.59-3.93,7.3-7.46,15.42-10.6,24.34-3.14,8.93-5.72,18.08-7.73,27.47-2.01,9.39-3.19,18.21-3.54,26.46,0,10.86,1.61,18.52,4.84,22.98,3.23,4.47,7.37,6.56,12.44,6.29,4.88-.26,9.73-2.1,14.53-5.51,4.8-3.41,8.81-7.87,12.04-13.39,3.23-5.51,4.93-11.6,5.11-18.27l-28.02,5.71,4.98-26.27,24.09-4.45c6.63-1.23,13.66-2.66,21.08-4.29,7.42-1.62,13.92-3.11,19.51-4.46-1.22,17.93-4.67,33.74-10.34,47.44-5.67,13.7-12.7,25.16-21.08,34.36-8.38,9.21-17.15,16.25-26.32,21.12-9.17,4.87-17.94,7.53-26.32,7.98Z" fill="url(#linear-gradient)"/>
      <path d="M902.81,357.88c.35-2.99.7-5.9,1.05-8.72.35-2.82.7-5.64,1.05-8.46l1.57-14.79c.17-2.46.35-4.75.52-6.86.17-2.11.35-4.04.52-5.81l-22.78,1.23-10.47,38.39c-3.84.73-8.38,1.55-13.62,2.44-5.24.9-10.13,1.73-14.66,2.5-2.79.5-5.54,1-8.25,1.49-2.71.5-5.45,1-8.25,1.49l20.69-69.93c2.44-8.36,5.24-17.88,8.38-28.55,3.14-10.67,6.33-21.61,9.56-32.82,3.23-11.21,6.29-21.74,9.17-31.62,2.88-9.87,5.19-18.18,6.94-24.93,11.87-1.51,23.96-3.21,36.27-5.1,12.31-1.88,24.31-4.2,36-6.93-.88,9.86-1.7,20.97-2.49,33.36s-1.49,25.16-2.09,38.33c-.61,13.17-1.27,26.16-1.96,38.98-.35,12.1-.79,24.6-1.31,37.5-.52,12.9-1.05,26.1-1.57,39.61-2.62.49-5.24.98-7.85,1.47-2.62.49-5.24.98-7.86,1.47-4.37.94-9.17,1.98-14.4,3.14-5.24,1.16-9.95,2.2-14.14,3.12ZM891.03,287.86c1.05-.06,3.01-.25,5.89-.58,2.88-.33,5.63-.65,8.25-.97,2.62-.31,4.19-.49,4.71-.52,0-2.27.35-6.93,1.05-13.98.7-7.04,1.4-14.43,2.09-22.18.35-4.57.74-9.27,1.18-14.12.43-4.84.92-9.81,1.44-14.92l1.57-22.94-3.93.47-6.02,22.91-16.23,66.8Z" fill="url(#linear-gradient)"/>
      <path d="M970.37,360.81c-5.24.28-9.56-.76-12.96-3.11-3.4-2.35-5.94-5.37-7.59-9.05-1.66-3.67-2.49-7.44-2.49-11.29,0-7,2.31-13.21,6.94-18.63,4.62-5.41,11.04-8.34,19.25-8.78,10.12-.54,17.72,1.46,22.78,6,5.06,4.55,7.59,9.88,7.59,16.01,0,7-2.88,13.42-8.64,19.25-5.76,5.83-14.05,9.03-24.88,9.61ZM970.89,294.07c2.79-11.01,5.5-21.92,8.12-32.74,2.62-10.82,5.24-21.64,7.85-32.47,2.44-10.81,5.02-21.68,7.72-32.59,2.71-10.91,5.45-21.79,8.25-32.62,9.95-2.11,19.02-3.91,27.23-5.41,8.2-1.49,14.93-2.81,20.16-3.98-9.43,22.57-18.03,45.23-25.79,67.97-7.77,22.74-15.49,45.62-23.17,68.62-5.07.27-10.13.72-15.19,1.34-5.06.63-10.13,1.25-15.19,1.87Z" fill="url(#linear-gradient)"/>
    </g>
  </g>
</svg>